<?xml version="1.0" standalone="no"?>
<!DOCTYPE svg PUBLIC "-//W3C//DTD SVG 20010904//EN"
 "http://www.w3.org/TR/2001/REC-SVG-20010904/DTD/svg10.dtd">
<svg version="1.0" xmlns="http://www.w3.org/2000/svg"
 width="100.000000pt" height="100.000000pt" viewBox="0 0 100.000000 100.000000"
 preserveAspectRatio="xMidYMid meet">
<metadata>
Created by potrace 1.16, written by Peter Selinger 2001-2019
</metadata>
<g transform="translate(0.000000,100.000000) scale(0.100000,-0.100000)"
fill="#000000" stroke="none">
<path d="M403 973 c-7 -2 -13 -20 -13 -39 0 -46 -23 -54 -59 -20 -25 24 -29
25 -48 11 -19 -13 -20 -19 -11 -51 11 -42 -2 -59 -37 -48 -64 19 -92 -6 -57
-51 28 -35 15 -55 -34 -55 -27 0 -37 -5 -46 -25 -10 -22 -8 -27 15 -46 37 -28
35 -56 -3 -64 -17 -4 -30 -13 -30 -20 0 -7 -2 -20 -5 -28 -4 -9 5 -17 27 -23
42 -12 49 -41 15 -69 -20 -16 -23 -25 -16 -42 6 -18 16 -23 43 -23 41 0 56
-28 33 -63 -12 -19 -12 -25 0 -44 14 -21 17 -22 45 -7 27 14 31 14 48 -1 15
-13 17 -22 9 -42 -12 -32 -12 -31 11 -43 16 -9 26 -7 49 10 34 24 61 17 61
-15 0 -26 24 -55 45 -55 7 0 18 14 25 30 17 41 53 41 70 1 9 -23 16 -28 33
-23 27 6 37 20 37 50 0 33 27 38 55 12 21 -20 29 -22 49 -12 22 10 24 14 16
44 -14 45 8 67 49 51 25 -9 32 -8 46 7 14 16 14 20 -2 48 -23 41 -5 66 43 58
28 -6 32 -4 38 20 7 25 -13 53 -37 54 -5 0 -7 12 -5 27 2 21 10 29 36 35 25 7
32 14 32 33 0 18 -8 26 -35 35 -43 14 -47 43 -10 72 20 16 23 23 15 39 -7 12
-21 19 -39 19 -16 0 -35 7 -42 16 -11 14 -10 21 4 47 23 39 10 52 -51 52 -50
0 -53 5 -38 52 6 18 2 25 -18 34 -20 10 -29 8 -56 -11 -37 -26 -60 -15 -60 30
0 49 -60 48 -75 -1 -10 -29 -42 -23 -60 11 -15 28 -33 35 -62 23z m207 -174
c101 -45 160 -138 160 -249 -1 -156 -115 -270 -270 -270 -155 0 -269 114 -270
270 0 155 114 270 270 270 44 0 80 -7 110 -21z"/>
</g>
</svg>
